# xmcd
#
# Track frame offsets: 
#        150
#        12797
#        24582
#        38075
#        53595
#        66890
#        81580
#        95612
#        109747
#        123805
#        138410
#        151847
#        165020
#        176800
#        191860
#        205605
#        218772
#        230800
#        242925
#        256160
#        268420
#        278902
#        289682
#        302742
#        315885
#        329197
#
# Disc length: 4574 seconds
#
# Revision: 1
# Processed by: cddbd v1.5.2PL0 Copyright (c) Steve Scherf et al.
# Submitted via: ExactAudioCopyFreeDBPlugin 1.0
#
DISCID=7511dc1a
DTITLE=Various Artist - Guitar Evangelists, 1928-1951
DYEAR=1992
DGENRE=Gospel
TTITLE0=Blind Benny Paris And Wife - I'm Gonna Live So God Use Me
TTITLE1=Blind Benny Paris And Wife - Hide Me In The Blood Of Jesus
TTITLE2=Rev. I. B. Ware With Wife and Son - I Wouldn't  Mind Dying (Bu
TTITLE2=t I Gotta Go By Myself)
TTITLE3=Rev. I. B. Ware With Wife and Son - You Better Quit Drinking S
TTITLE3=hine
TTITLE4=Blind Willie Harris - Does Jesus Care?
TTITLE5=Blind Willie Harris - Where He Leads Me I Will Follow
TTITLE6=Eddie Head And His Family - Down On Me
TTITLE7=Eddie Head And His Family - Lord, I'm The True Vine
TTITLE8=Eddie Head And His Family - Tryin' To Get Home
TTITLE9=Eddie Head And His Family - Within My Mind
TTITLE10=Mother McCollum - I Want To See Him
TTITLE11=Mother McCollum - When I Take My Vacation In Heaven
TTITLE12=Mother McCollum - You Can't Hide
TTITLE13=Mother McCollum - Jesus Is My Air-O-Plane
TTITLE14=Mother McCollum - Oh Lord I'm Your Child
TTITLE15=Mother McCollum - Glory! Glory! Hallelujah!
TTITLE16=Dennis Crumpton And Robert Summers - Go I'll Send Thee
TTITLE17=Dennis Crumpton And Robert Summers - Everybody Ought To Pray 
TTITLE17=Sometime
TTITLE18=Sister Mathews - Stand By Me
TTITLE19=Rev. Charles White - How Long
TTITLE20=Willie Mae Williams - Don't Want To Go There
TTITLE21=Willie Mae Williams - Where The Sun Never Goes Down
TTITLE22=Brother Willie Eason - There'll Will Be No Grumblers There
TTITLE23=Brother Willie Eason - I Want To Live (So God Can Use Me) 
TTITLE24=Sister Elisabeth Phillips - A Little Old Fashioned
TTITLE25=Sister Elisabeth Phillips - There's Nothing Like The Holy Spi
TTITLE25=rit
EXTD=
EXTT0=
EXTT1=
EXTT2=
EXTT3=
EXTT4=
EXTT5=
EXTT6=
EXTT7=
EXTT8=
EXTT9=
EXTT10=
EXTT11=
EXTT12=
EXTT13=
EXTT14=
EXTT15=
EXTT16=
EXTT17=
EXTT18=
EXTT19=
EXTT20=
EXTT21=
EXTT22=
EXTT23=
EXTT24=
EXTT25=
PLAYORDER=
